<?xml version="1.0" encoding="UTF-8" standalone="no"?>
<!DOCTYPE svg PUBLIC "-//W3C//DTD SVG 1.1//EN" "http://www.w3.org/Graphics/SVG/1.1/DTD/svg11.dtd">
<svg width="100%" height="100%" viewBox="0 0 225 1000" version="1.1" xmlns="http://www.w3.org/2000/svg" xmlns:xlink="http://www.w3.org/1999/xlink" xml:space="preserve" xmlns:serif="http://www.serif.com/" style="fill-rule:evenodd;clip-rule:evenodd;stroke-linejoin:round;stroke-miterlimit:2;">
    <rect id="Artboard1" x="0" y="0" width="225" height="1000" style="fill:none;"/>
    <clipPath id="_clip1">
        <rect id="Artboard11" serif:id="Artboard1" x="0" y="0" width="225" height="1000"/>
    </clipPath>
    <g clip-path="url(#_clip1)">
        <g transform="matrix(1,0,0,1,-12,0)">
            <path d="M0,1000L0,0C8.333,0 16.667,8.4 25,8.4C33.333,8.4 41.667,0 50,0C58.333,0 66.667,8.4 75,8.4C83.333,8.4 91.667,0 100,0C108.333,0 116.667,8.4 125,8.4C133.333,8.4 141.667,0 150,0C158.333,0 166.667,8.4 175,8.4C183.333,8.4 191.667,0 200,0C208.333,0 216.667,8.4 225,8.4C233.333,8.4 241.667,0 250,0L250,1000L0,1000Z" style="fill:rgb(0,141,255);"/>
        </g>
    </g>
</svg>
