<?xml version="1.0" encoding="UTF-8" standalone="no"?>
<!DOCTYPE svg PUBLIC "-//W3C//DTD SVG 1.1//EN" "http://www.w3.org/Graphics/SVG/1.1/DTD/svg11.dtd">
<svg width="100%" height="100%" viewBox="0 0 151 135" version="1.1" xmlns="http://www.w3.org/2000/svg" xmlns:xlink="http://www.w3.org/1999/xlink" xml:space="preserve" xmlns:serif="http://www.serif.com/" style="fill-rule:evenodd;clip-rule:evenodd;stroke-linejoin:round;stroke-miterlimit:2;">
    <rect id="Artboard1" x="0" y="0" width="150.814" height="134.503" style="fill:none;"/>
    <clipPath id="_clip1">
        <rect id="Artboard11" serif:id="Artboard1" x="0" y="0" width="150.814" height="134.503"/>
    </clipPath>
    <g clip-path="url(#_clip1)">
        <g id="high" transform="matrix(0.820025,0,0,0.820025,-556.078,-352.637)">
            <path d="M694.372,462.941C697.442,462.941 700.102,462.345 702.351,461.152C704.599,459.959 706.242,458.63 707.278,457.163L703.201,452.764C702.263,453.976 701.04,454.885 699.535,455.491C698.029,456.097 696.475,456.401 694.871,456.401C693.737,456.401 692.691,456.225 691.733,455.873C690.775,455.521 689.924,455.022 689.181,454.377C688.457,453.751 687.881,453.052 687.45,452.28C687.02,451.507 686.668,450.485 686.394,449.214L686.394,449.126L707.923,449.126L707.923,445.665C707.923,443.338 707.601,441.212 706.955,439.286C706.31,437.36 705.372,435.712 704.14,434.344C702.888,432.975 701.368,431.914 699.579,431.161C697.79,430.408 695.751,430.032 693.463,430.032C691.254,430.032 689.21,430.433 687.333,431.235C685.456,432.036 683.833,433.161 682.464,434.608C681.095,436.055 680.03,437.78 679.267,439.785C678.504,441.789 678.123,444.003 678.123,446.428L678.123,447.601C678.123,449.733 678.509,451.732 679.282,453.599C680.054,455.467 681.154,457.085 682.581,458.454C684.009,459.842 685.72,460.937 687.714,461.739C689.709,462.541 691.928,462.941 694.372,462.941ZM693.405,436.631C694.441,436.631 695.355,436.793 696.147,437.115C696.939,437.438 697.609,437.873 698.156,438.421C698.704,438.988 699.134,439.653 699.447,440.415C699.76,441.178 699.916,441.989 699.916,442.85L699.916,443.495L686.541,443.495C686.737,442.459 687.03,441.52 687.421,440.679C687.812,439.838 688.301,439.115 688.888,438.509C689.455,437.902 690.119,437.438 690.882,437.115C691.645,436.793 692.485,436.631 693.405,436.631Z" style="fill:white;fill-opacity:0.5;fill-rule:nonzero;"/>
            <path d="M727.694,462.355L735.35,462.355L747.405,430.619L738.899,430.619L731.947,452.998L731.507,455.227L731.068,452.998L724.087,430.619L715.581,430.619L727.694,462.355Z" style="fill:white;fill-opacity:0.5;fill-rule:nonzero;"/>
            <path d="M776.063,462.355L784.335,462.355L784.335,461.856C783.924,461.054 783.611,460.096 783.396,458.982C783.181,457.867 783.073,456.459 783.073,454.758L783.073,441.148C783.073,439.31 782.731,437.692 782.047,436.294C781.362,434.896 780.414,433.737 779.202,432.818C777.989,431.899 776.557,431.205 774.905,430.736C773.252,430.267 771.468,430.032 769.552,430.032C767.42,430.032 765.529,430.301 763.876,430.839C762.224,431.376 760.831,432.105 759.697,433.024C758.543,433.943 757.668,435.008 757.071,436.221C756.475,437.433 756.177,438.714 756.177,440.063L764.331,440.063C764.331,439.496 764.414,438.978 764.58,438.509C764.746,438.039 765.005,437.638 765.357,437.306C765.748,436.935 766.257,436.646 766.883,436.441C767.508,436.235 768.251,436.133 769.112,436.133C770.089,436.133 770.945,436.255 771.678,436.499C772.412,436.744 773.023,437.091 773.511,437.541C773.981,437.971 774.333,438.484 774.567,439.081C774.802,439.677 774.919,440.347 774.919,441.09L774.919,442.967L770.373,442.967C768.027,442.967 765.949,443.177 764.14,443.598C762.331,444.018 760.811,444.629 759.579,445.431C758.21,446.311 757.184,447.43 756.499,448.789C755.815,450.148 755.473,451.708 755.473,453.467C755.473,454.836 755.747,456.102 756.294,457.266C756.842,458.429 757.604,459.431 758.582,460.272C759.56,461.113 760.728,461.768 762.087,462.237C763.446,462.707 764.937,462.941 766.56,462.941C767.557,462.941 768.486,462.849 769.346,462.663C770.207,462.477 770.999,462.218 771.722,461.885C772.426,461.573 773.071,461.201 773.658,460.771C774.245,460.341 774.763,459.881 775.213,459.392C775.31,459.959 775.428,460.497 775.565,461.006C775.701,461.514 775.868,461.964 776.063,462.355ZM768.291,456.635C767.528,456.635 766.858,456.542 766.281,456.357C765.704,456.171 765.221,455.921 764.829,455.609C764.438,455.276 764.14,454.87 763.935,454.391C763.73,453.912 763.627,453.389 763.627,452.822C763.627,452.099 763.764,451.429 764.038,450.813C764.311,450.197 764.732,449.664 765.299,449.214C765.866,448.784 766.599,448.447 767.499,448.203C768.398,447.958 769.483,447.836 770.754,447.836L774.919,447.836L774.919,453.291C774.685,453.702 774.362,454.108 773.951,454.509C773.541,454.91 773.052,455.266 772.485,455.579C771.918,455.892 771.282,456.146 770.578,456.342C769.874,456.537 769.112,456.635 768.291,456.635Z" style="fill:white;fill-opacity:0.5;fill-rule:nonzero;"/>
            <path d="M808.916,456.43C807.606,456.43 806.525,456.166 805.675,455.638C804.824,455.11 804.155,454.406 803.666,453.526C803.157,452.666 802.805,451.664 802.61,450.52C802.414,449.376 802.316,448.188 802.316,446.956L802.316,446.076C802.316,444.864 802.419,443.69 802.624,442.556C802.83,441.422 803.187,440.415 803.695,439.535C804.184,438.655 804.849,437.951 805.69,437.423C806.53,436.895 807.596,436.631 808.887,436.631C809.767,436.631 810.578,436.783 811.321,437.086C812.064,437.389 812.7,437.795 813.228,438.303C813.756,438.812 814.156,439.418 814.43,440.122C814.704,440.826 814.821,441.569 814.782,442.351L822.467,442.351C822.506,440.474 822.193,438.777 821.528,437.262C820.863,435.747 819.935,434.451 818.742,433.376C817.529,432.32 816.092,431.498 814.43,430.912C812.768,430.325 810.959,430.032 809.004,430.032C806.56,430.032 804.414,430.452 802.566,431.293C800.718,432.134 799.168,433.278 797.917,434.725C796.665,436.172 795.727,437.868 795.101,439.814C794.475,441.759 794.162,443.847 794.162,446.076L794.162,446.956C794.162,449.185 794.48,451.273 795.116,453.218C795.751,455.164 796.695,456.86 797.946,458.307C799.178,459.754 800.723,460.893 802.58,461.724C804.438,462.555 806.599,462.971 809.063,462.971C810.881,462.971 812.607,462.682 814.24,462.105C815.872,461.529 817.305,460.732 818.537,459.715C819.768,458.698 820.741,457.486 821.455,456.078C822.169,454.67 822.506,453.145 822.467,451.502L814.782,451.502C814.821,452.245 814.689,452.92 814.386,453.526C814.083,454.132 813.658,454.65 813.11,455.081C812.563,455.511 811.927,455.843 811.204,456.078C810.48,456.313 809.718,456.43 808.916,456.43Z" style="fill:white;fill-opacity:0.5;fill-rule:nonzero;"/>
            <path d="M854.205,462.355L861.596,462.355L861.596,430.619L853.413,430.619L853.413,452.881C853.159,453.389 852.856,453.849 852.504,454.259C852.152,454.67 851.751,455.022 851.301,455.315C850.773,455.648 850.162,455.902 849.468,456.078C848.774,456.254 847.997,456.342 847.136,456.342C846.178,456.342 845.367,456.225 844.702,455.99C844.037,455.755 843.499,455.364 843.088,454.817C842.678,454.289 842.38,453.585 842.194,452.705C842.008,451.825 841.915,450.74 841.915,449.449L841.915,430.619L833.761,430.619L833.761,449.39C833.761,451.796 834.03,453.854 834.568,455.565C835.106,457.276 835.863,458.679 836.841,459.774C837.819,460.888 838.992,461.7 840.361,462.208C841.729,462.717 843.235,462.971 844.878,462.971C846.677,462.971 848.334,462.521 849.849,461.621C851.365,460.722 852.66,459.48 853.736,457.896L854.205,462.355Z" style="fill:white;fill-opacity:0.5;fill-rule:nonzero;"/>
            <path d="M698.801,525.755L707.073,525.755L707.073,525.256C706.662,524.454 706.349,523.496 706.134,522.382C705.919,521.267 705.812,519.859 705.812,518.158L705.812,504.548C705.812,502.71 705.469,501.092 704.785,499.694C704.101,498.296 703.152,497.137 701.94,496.218C700.728,495.299 699.295,494.605 697.643,494.136C695.991,493.667 694.206,493.432 692.29,493.432C690.159,493.432 688.267,493.701 686.614,494.239C684.962,494.776 683.569,495.505 682.435,496.424C681.281,497.343 680.406,498.408 679.81,499.621C679.213,500.833 678.915,502.114 678.915,503.463L687.069,503.463C687.069,502.896 687.152,502.378 687.318,501.909C687.485,501.439 687.744,501.038 688.096,500.706C688.487,500.335 688.995,500.046 689.621,499.841C690.247,499.635 690.99,499.533 691.85,499.533C692.828,499.533 693.683,499.655 694.416,499.899C695.15,500.144 695.761,500.491 696.25,500.941C696.719,501.371 697.071,501.884 697.306,502.481C697.54,503.077 697.658,503.747 697.658,504.49L697.658,506.367L693.111,506.367C690.765,506.367 688.687,506.577 686.878,506.998C685.07,507.418 683.549,508.029 682.317,508.831C680.949,509.711 679.922,510.83 679.238,512.189C678.553,513.548 678.211,515.108 678.211,516.867C678.211,518.236 678.485,519.502 679.032,520.666C679.58,521.829 680.342,522.831 681.32,523.672C682.298,524.513 683.466,525.168 684.825,525.637C686.184,526.107 687.675,526.341 689.298,526.341C690.295,526.341 691.224,526.249 692.085,526.063C692.945,525.877 693.737,525.618 694.46,525.285C695.164,524.973 695.81,524.601 696.396,524.171C696.983,523.741 697.501,523.281 697.951,522.792C698.049,523.359 698.166,523.897 698.303,524.406C698.44,524.914 698.606,525.364 698.801,525.755ZM691.029,520.035C690.266,520.035 689.596,519.942 689.02,519.757C688.443,519.571 687.959,519.321 687.568,519.009C687.177,518.676 686.878,518.27 686.673,517.791C686.468,517.312 686.365,516.789 686.365,516.222C686.365,515.499 686.502,514.829 686.776,514.213C687.049,513.597 687.47,513.064 688.037,512.614C688.604,512.184 689.337,511.847 690.237,511.603C691.136,511.358 692.222,511.236 693.493,511.236L697.658,511.236L697.658,516.691C697.423,517.102 697.1,517.508 696.69,517.909C696.279,518.31 695.79,518.666 695.223,518.979C694.656,519.292 694.02,519.546 693.317,519.742C692.613,519.937 691.85,520.035 691.029,520.035Z" style="fill:white;fill-opacity:0.5;fill-rule:nonzero;"/>
            <path d="M732.563,486.246L724.409,486.246L724.409,494.019L717.165,494.019L717.165,500.031L724.409,500.031L724.409,514.462C724.409,516.555 724.683,518.349 725.231,519.845C725.778,521.34 726.56,522.567 727.577,523.526C728.574,524.503 729.782,525.222 731.199,525.681C732.617,526.141 734.196,526.371 735.936,526.371C736.836,526.371 737.75,526.327 738.679,526.239C739.608,526.151 740.502,526.029 741.363,525.872C742.223,525.716 743.035,525.515 743.797,525.271C744.56,525.026 745.225,524.738 745.792,524.406L745,518.803C744.628,518.901 744.183,518.999 743.665,519.097C743.147,519.194 742.595,519.282 742.008,519.361C741.402,519.458 740.771,519.537 740.116,519.595C739.461,519.654 738.821,519.683 738.195,519.683C737.335,519.683 736.557,519.585 735.863,519.39C735.169,519.194 734.577,518.862 734.089,518.393C733.6,517.943 733.223,517.332 732.959,516.559C732.695,515.787 732.563,514.824 732.563,513.67L732.563,500.031L744.413,500.031L744.413,494.019L732.563,494.019L732.563,486.246Z" style="fill:white;fill-opacity:0.5;fill-rule:nonzero;"/>
            <path d="M758.406,494.019L758.406,500.677L767.44,500.677L767.44,519.126L758.406,519.126L758.406,525.755L784.276,525.755L784.276,519.126L775.682,519.126L775.682,494.019L758.406,494.019ZM766.853,485.894C766.853,486.52 766.966,487.101 767.191,487.639C767.415,488.177 767.733,488.631 768.144,489.003C768.554,489.394 769.048,489.697 769.625,489.912C770.202,490.127 770.842,490.235 771.546,490.235C772.993,490.235 774.142,489.829 774.993,489.018C775.843,488.206 776.269,487.165 776.269,485.894C776.269,484.623 775.843,483.582 774.993,482.77C774.142,481.959 772.993,481.553 771.546,481.553C770.842,481.553 770.202,481.66 769.625,481.875C769.048,482.091 768.554,482.384 768.144,482.755C767.733,483.147 767.415,483.611 767.191,484.149C766.966,484.686 766.853,485.268 766.853,485.894Z" style="fill:white;fill-opacity:0.5;fill-rule:nonzero;"/>
            <path d="M793.752,509.593L793.752,510.209C793.752,512.536 794.084,514.682 794.749,516.647C795.414,518.613 796.392,520.319 797.682,521.766C798.953,523.213 800.522,524.342 802.39,525.153C804.257,525.965 806.384,526.371 808.769,526.371C811.135,526.371 813.247,525.965 815.105,525.153C816.962,524.342 818.527,523.213 819.798,521.766C821.069,520.319 822.037,518.613 822.702,516.647C823.366,514.682 823.699,512.536 823.699,510.209L823.699,509.593C823.699,507.286 823.366,505.15 822.702,503.185C822.037,501.219 821.069,499.513 819.798,498.066C818.507,496.619 816.933,495.485 815.075,494.664C813.218,493.843 811.096,493.432 808.711,493.432C806.325,493.432 804.208,493.843 802.36,494.664C800.513,495.485 798.953,496.619 797.682,498.066C796.392,499.513 795.414,501.219 794.749,503.185C794.084,505.15 793.752,507.286 793.752,509.593ZM801.906,510.209L801.906,509.593C801.906,508.303 802.033,507.081 802.287,505.927C802.541,504.773 802.942,503.756 803.49,502.877C804.037,501.997 804.741,501.302 805.602,500.794C806.462,500.286 807.498,500.031 808.711,500.031C809.943,500.031 810.989,500.286 811.849,500.794C812.709,501.302 813.413,501.997 813.961,502.877C814.489,503.756 814.88,504.773 815.134,505.927C815.388,507.081 815.515,508.303 815.515,509.593L815.515,510.209C815.515,511.539 815.388,512.786 815.134,513.949C814.88,515.112 814.489,516.124 813.961,516.985C813.413,517.865 812.709,518.559 811.849,519.067C810.989,519.576 809.962,519.83 808.769,519.83C807.537,519.83 806.486,519.576 805.616,519.067C804.746,518.559 804.037,517.865 803.49,516.985C802.942,516.124 802.541,515.112 802.287,513.949C802.033,512.786 801.906,511.539 801.906,510.209Z" style="fill:white;fill-opacity:0.5;fill-rule:nonzero;"/>
            <path d="M833.497,525.755L841.681,525.755L841.681,503.199C841.954,502.769 842.257,502.378 842.59,502.026C842.922,501.674 843.294,501.371 843.704,501.117C844.213,500.765 844.795,500.501 845.45,500.325C846.105,500.149 846.823,500.061 847.605,500.061C848.544,500.061 849.385,500.154 850.128,500.339C850.871,500.525 851.507,500.853 852.034,501.322C852.562,501.791 852.968,502.432 853.252,503.243C853.535,504.055 853.677,505.086 853.677,506.338L853.677,525.755L861.831,525.755L861.831,506.22C861.831,503.913 861.562,501.953 861.024,500.339C860.487,498.726 859.739,497.401 858.781,496.365C857.803,495.348 856.649,494.605 855.32,494.136C853.99,493.667 852.523,493.432 850.92,493.432C849.668,493.432 848.485,493.608 847.371,493.96C846.256,494.312 845.23,494.82 844.291,495.485C843.744,495.876 843.225,496.316 842.737,496.805C842.248,497.294 841.798,497.832 841.387,498.418L840.889,494.019L833.497,494.019L833.497,525.755Z" style="fill:white;fill-opacity:0.5;fill-rule:nonzero;"/>
            <path d="M678.123,577.952L678.123,578.568C678.123,580.875 678.407,583.012 678.974,584.977C679.541,586.942 680.362,588.638 681.437,590.066C682.493,591.493 683.789,592.613 685.324,593.424C686.859,594.236 688.594,594.641 690.53,594.641C692.31,594.641 693.874,594.299 695.223,593.615C696.572,592.93 697.746,591.972 698.743,590.74L699.153,594.055L706.516,594.055L706.516,549.002L698.332,549.002L698.332,565.164C697.354,564.069 696.235,563.223 694.974,562.627C693.713,562.03 692.251,561.732 690.589,561.732C688.614,561.732 686.859,562.123 685.324,562.905C683.789,563.687 682.484,564.792 681.408,566.22C680.333,567.647 679.516,569.358 678.959,571.353C678.402,573.347 678.123,575.547 678.123,577.952ZM686.277,578.568L686.277,577.952C686.277,576.622 686.394,575.376 686.629,574.212C686.864,573.049 687.235,572.027 687.744,571.147C688.252,570.287 688.912,569.607 689.723,569.109C690.535,568.61 691.518,568.361 692.671,568.361C694.06,568.361 695.213,568.659 696.132,569.255C697.051,569.852 697.785,570.688 698.332,571.763L698.332,584.61C697.785,585.666 697.046,586.497 696.118,587.103C695.189,587.709 694.02,588.013 692.613,588.013C691.459,588.013 690.481,587.768 689.679,587.279C688.878,586.79 688.223,586.116 687.714,585.255C687.206,584.415 686.839,583.422 686.614,582.278C686.39,581.134 686.277,579.898 686.277,578.568Z" style="fill:white;fill-opacity:0.5;fill-rule:nonzero;"/>
            <path d="M740.395,561.732C738.263,561.732 736.298,562.245 734.499,563.272C732.7,564.298 731.155,565.711 729.865,567.51L729.806,566.806L729.484,562.319L721.887,562.319L721.887,594.055L730.041,594.055L730.041,574.99C730.412,574.09 730.882,573.308 731.449,572.643C732.016,571.978 732.7,571.431 733.502,571.001C734.167,570.629 734.925,570.35 735.775,570.165C736.626,569.979 737.579,569.886 738.635,569.886C739.652,569.886 740.722,569.95 741.847,570.077C742.971,570.204 744.071,570.394 745.146,570.649L746.349,562.524C745.704,562.328 744.858,562.147 743.812,561.981C742.766,561.815 741.627,561.732 740.395,561.732Z" style="fill:white;fill-opacity:0.5;fill-rule:nonzero;"/>
            <path d="M758.406,562.319L758.406,568.977L767.44,568.977L767.44,587.426L758.406,587.426L758.406,594.055L784.276,594.055L784.276,587.426L775.682,587.426L775.682,562.319L758.406,562.319ZM766.853,554.194C766.853,554.82 766.966,555.401 767.191,555.939C767.415,556.477 767.733,556.931 768.144,557.303C768.554,557.694 769.048,557.997 769.625,558.212C770.202,558.427 770.842,558.535 771.546,558.535C772.993,558.535 774.142,558.129 774.993,557.318C775.843,556.506 776.269,555.465 776.269,554.194C776.269,552.923 775.843,551.882 774.993,551.07C774.142,550.259 772.993,549.853 771.546,549.853C770.842,549.853 770.202,549.96 769.625,550.175C769.048,550.391 768.554,550.684 768.144,551.055C767.733,551.447 767.415,551.911 767.191,552.449C766.966,552.986 766.853,553.568 766.853,554.194Z" style="fill:white;fill-opacity:0.5;fill-rule:nonzero;"/>
            <path d="M796.568,549.002L796.568,555.66L806.071,555.66L806.071,587.426L796.568,587.426L796.568,594.055L823.405,594.055L823.405,587.426L814.313,587.426L814.313,549.002L796.568,549.002Z" style="fill:white;fill-opacity:0.5;fill-rule:nonzero;"/>
            <path d="M835.198,549.002L835.198,555.66L844.702,555.66L844.702,587.426L835.198,587.426L835.198,594.055L862.036,594.055L862.036,587.426L852.944,587.426L852.944,549.002L835.198,549.002Z" style="fill:white;fill-opacity:0.5;fill-rule:nonzero;"/>
        </g>
    </g>
</svg>
