<?xml version="1.0" encoding="UTF-8" standalone="no"?>
<!DOCTYPE svg PUBLIC "-//W3C//DTD SVG 1.1//EN" "http://www.w3.org/Graphics/SVG/1.1/DTD/svg11.dtd">
<svg width="100%" height="100%" viewBox="0 0 1830 584" version="1.1" xmlns="http://www.w3.org/2000/svg" xmlns:xlink="http://www.w3.org/1999/xlink" xml:space="preserve" xmlns:serif="http://www.serif.com/" style="fill-rule:evenodd;clip-rule:evenodd;stroke-linejoin:round;stroke-miterlimit:2;">
    <g transform="matrix(4.16667,0,0,4.16667,0,0)">
        <path d="M107.457,48.591C106.625,43.774 105.434,39.861 103.814,36.627C102.413,33.83 100.672,31.55 98.64,29.851C95.801,27.477 92.382,26.222 88.752,26.222C87.024,26.222 85.351,26.457 83.77,26.91L89.105,15.488L78.199,7.742L70.339,7.742C69.003,7.742 67.535,6.726 65.676,5.439C62.39,3.166 57.89,0.053 50.289,0.053C43.864,0.053 38.795,1.84 34.793,5.519C34.793,5.519 8.809,30.867 8.666,31.009L8.666,31.008C7.155,32.546 5.833,34.436 4.736,36.627C3.116,39.861 1.925,43.774 1.093,48.591C-0.648,58.676 -0.304,68.752 2.087,77.729C4.667,87.415 9.383,96.709 16.103,105.355C24.315,115.922 35.549,125.522 49.493,133.889L54.275,136.76L59.057,133.889C73.001,125.521 84.236,115.921 92.447,105.355C99.166,96.709 103.883,87.415 106.463,77.729C108.855,68.752 109.198,58.677 107.457,48.591Z" style="fill:white;fill-rule:nonzero;"/>
        <path d="M46.593,37.882L32.099,37.882L30.794,59.699C31.591,59.819 32.368,60.053 33.101,60.394L46.593,37.882Z" style="fill:rgb(35,31,32);fill-rule:nonzero;"/>
        <path d="M35.327,87.367C35.287,87.348 35.246,87.328 35.206,87.309L35.206,89.08C35.438,89.187 35.677,89.292 35.926,89.393C37.036,89.841 38.373,90.195 40.431,90.195C42.681,90.195 44.068,89.773 45.239,89.267L45.239,87.508C44.024,88.085 42.783,88.596 40.431,88.596C38.274,88.596 37.052,88.166 35.926,87.65C35.725,87.557 35.526,87.462 35.327,87.367Z" style="fill:rgb(35,31,32);fill-rule:nonzero;"/>
        <path d="M35.926,94.149C35.725,94.056 35.526,93.961 35.327,93.866C35.287,93.847 35.246,93.828 35.206,93.808L35.206,95.579C35.438,95.686 35.677,95.791 35.926,95.892C37.036,96.34 38.373,96.695 40.431,96.695C42.011,96.695 43.165,96.486 44.118,96.186L44.118,94.493C43.186,94.842 42.083,95.095 40.431,95.095C38.274,95.095 37.052,94.665 35.926,94.149Z" style="fill:rgb(35,31,32);fill-rule:nonzero;"/>
        <path d="M35.926,100.635C35.725,100.543 35.526,100.448 35.327,100.352C35.287,100.333 35.246,100.314 35.206,100.295L35.206,102.065C35.438,102.172 35.677,102.278 35.926,102.378C37.036,102.827 38.373,103.181 40.431,103.181C41.252,103.181 41.956,103.124 42.579,103.027L42.579,101.404C41.972,101.515 41.274,101.582 40.431,101.582C38.274,101.582 37.052,101.151 35.926,100.635Z" style="fill:rgb(35,31,32);fill-rule:nonzero;"/>
        <path d="M52.224,7.827C53.427,8.083 54.588,8.477 55.681,9.02C56.776,9.56 57.807,10.231 58.823,10.973C60.331,12.061 61.853,13.323 63.643,14.32L63.643,11.617C62.415,10.943 61.192,10.128 59.915,9.336C58.798,8.646 57.614,7.995 56.358,7.493C55.104,6.985 53.78,6.648 52.452,6.472C51.124,6.295 49.784,6.285 48.477,6.39C48.401,6.396 48.325,6.406 48.249,6.412L48.249,7.472C48.338,7.471 48.427,7.467 48.516,7.467C49.776,7.462 51.019,7.571 52.224,7.827Z" style="fill:rgb(35,31,32);fill-rule:nonzero;"/>
        <path d="M102.709,76.729C101.2,82.395 98.911,87.928 95.877,93.269L95.876,93.27C95.721,93.544 95.56,93.817 95.4,94.09C95.281,94.295 95.161,94.5 95.039,94.705C94.882,94.967 94.723,95.23 94.562,95.492C94.424,95.717 94.284,95.942 94.143,96.166C93.992,96.408 93.842,96.649 93.687,96.89C93.409,97.323 93.127,97.754 92.84,98.184C92.728,98.35 92.614,98.515 92.501,98.68C92.286,98.996 92.069,99.312 91.849,99.626C91.722,99.807 91.594,99.987 91.466,100.167C91.24,100.483 91.011,100.799 90.779,101.115C90.665,101.27 90.552,101.425 90.436,101.581C90.093,102.042 89.746,102.501 89.39,102.959C89.387,102.963 89.384,102.967 89.38,102.972C89.05,103.396 88.707,103.817 88.367,104.238C84.627,108.872 80.275,113.315 75.325,117.54C71.674,120.655 67.695,123.65 63.414,126.52C61.363,127.895 59.249,129.244 57.058,130.559L54.275,132.229L51.491,130.559C37.96,122.438 27.085,113.157 19.169,102.972C18.938,102.675 18.715,102.375 18.49,102.076C18.337,101.875 18.182,101.675 18.032,101.474C17.756,101.103 17.489,100.729 17.221,100.356C17.127,100.225 17.03,100.094 16.936,99.963C16.632,99.534 16.335,99.102 16.041,98.669C15.991,98.596 15.939,98.523 15.89,98.45C15.568,97.973 15.253,97.494 14.943,97.013C14.926,96.987 14.908,96.96 14.891,96.934C10.735,90.473 7.698,83.703 5.84,76.729C3.592,68.29 3.274,58.789 4.921,49.251C5.457,46.144 6.15,43.474 7.012,41.155C7.276,42.867 7.948,44.446 8.92,45.793C8.603,47.032 8.325,48.343 8.073,49.796C7.681,52.07 7.405,54.337 7.245,56.587L22.301,63.622C22.554,63.218 22.83,62.83 23.147,62.476C23.375,62.219 23.623,61.982 23.879,61.755L14.776,49.884C15.696,50.14 16.663,50.28 17.663,50.28C18.383,50.28 19.086,50.201 19.771,50.064L25.961,60.392C26.694,60.051 27.473,59.822 28.269,59.701L27.344,44.228C27.657,43.586 27.917,42.909 28.101,42.196L30.299,34.947L30.379,34.683L78.608,34.683L78.949,34.304C80.669,32.389 83.766,30.106 88.752,30.106C91.459,30.106 94.017,31.048 96.148,32.83C97.769,34.186 99.18,36.048 100.341,38.367C101.788,41.255 102.863,44.815 103.629,49.251C105.276,58.789 104.958,68.29 102.709,76.729ZM25.893,41.606C25.005,45.093 22.03,47.601 18.503,47.949C18.226,47.977 17.946,47.995 17.663,47.995C13.174,47.995 9.497,44.491 9.199,40.076C9.186,39.885 9.17,39.695 9.17,39.502C9.17,37.175 10.139,34.946 11.85,33.32C12.031,33.151 20.134,25.238 20.134,25.238L28.389,25.238L28.389,33.371L25.893,41.606ZM37.446,8.355C38.636,7.262 42.254,3.937 50.289,3.937C56.677,3.937 60.284,6.432 63.466,8.634C65.787,10.239 67.79,11.626 70.339,11.626L76.959,11.626L84.215,16.779L81.212,23.208L74.689,23.208C73.741,23.143 72.806,22.801 72.065,22.162C71.136,21.38 70.557,20.168 70.457,18.852L69.311,18.852C69.27,19.633 69.359,20.44 69.612,21.215C69.867,21.999 70.29,22.745 70.857,23.377C71.105,23.655 71.385,23.906 71.683,24.136L70.066,27.595L74.514,32.398L71.136,32.398L65.29,27.382L63.929,27.382L68.232,32.398L59.587,32.398L54.593,27.404L51.617,27.404C52.213,26.062 52.565,24.616 52.625,23.162C52.639,22.895 52.638,22.628 52.636,22.363L52.579,21.566L52.548,21.169L52.48,20.776L52.339,19.993C52.074,18.965 51.725,17.959 51.206,17.038C50.684,16.124 50.082,15.251 49.332,14.517L49.061,14.233L48.765,13.976C48.565,13.807 48.374,13.628 48.168,13.468C47.741,13.168 47.329,12.847 46.867,12.604C45.473,11.775 43.898,11.304 42.304,11.143C41.848,11.097 41.389,11.073 40.933,11.078L40.933,12.184C42.783,12.262 44.613,12.784 46.137,13.801C46.532,14.031 46.876,14.334 47.236,14.612C47.408,14.76 47.566,14.925 47.732,15.08L47.978,15.315L48.2,15.574C48.818,16.239 49.294,17.02 49.7,17.818C50.104,18.625 50.351,19.493 50.534,20.365L50.618,21.029L50.66,21.36L50.666,21.695L50.682,22.362C50.672,22.584 50.662,22.806 50.64,23.027C50.476,24.794 49.81,26.489 48.761,27.887L47.409,29.689L53.646,29.689L56.355,32.398L30.674,32.398L30.674,22.953L22.478,22.953L37.446,8.355ZM105.881,48.863C105.077,44.203 103.933,40.435 102.384,37.343C101.082,34.743 99.477,32.635 97.614,31.077C95.066,28.947 92.002,27.821 88.752,27.821C84.395,27.821 80.461,29.437 77.615,32.384L72.788,27.169L73.57,25.493L80.145,25.493L79.36,27.172L81.882,27.172L87.092,16.019L77.688,9.34L70.339,9.34C68.504,9.34 66.854,8.199 64.767,6.754C61.48,4.481 57.391,1.651 50.289,1.651C44.283,1.651 39.577,3.294 35.875,6.696L19.205,22.953L19.204,22.953C19.204,22.953 9.834,32.099 9.807,32.129C8.419,33.541 7.197,35.286 6.166,37.343C4.618,40.435 3.474,44.203 2.669,48.863C0.966,58.723 1.299,68.562 3.632,77.317C6.157,86.795 10.778,95.898 17.365,104.374C25.455,114.783 36.541,124.252 50.315,132.518L54.275,134.895L58.234,132.518C72.008,124.252 83.095,114.784 91.185,104.374C97.772,95.898 102.393,86.795 104.918,77.317C107.25,68.562 107.583,58.723 105.881,48.863Z" style="fill:rgb(35,31,32);fill-rule:nonzero;"/>
        <path d="M77.509,17.477C78.19,17.477 78.743,16.925 78.743,16.243C78.743,15.562 78.19,15.009 77.509,15.009C76.827,15.009 76.275,15.562 76.275,16.243C76.275,16.925 76.827,17.477 77.509,17.477Z" style="fill:rgb(35,31,32);fill-rule:nonzero;"/>
        <path d="M70.456,16.89C70.456,16.89 70.457,16.882 70.46,16.868C70.506,16.677 70.896,15.229 72.37,14.982L72.37,13.813L69.297,13.813L69.297,16.89L70.456,16.89Z" style="fill:rgb(35,31,32);fill-rule:nonzero;"/>
        <path d="M62.175,82.627C63.562,83.293 65.135,84.048 68.12,84.048C70.144,84.048 71.517,83.701 72.624,83.27C72.639,83.264 72.654,83.259 72.669,83.253C73.178,83.053 73.631,82.835 74.065,82.627C74.093,82.614 74.12,82.601 74.147,82.588C74.403,82.465 74.654,82.346 74.909,82.234C74.953,82.215 74.996,82.196 75.04,82.177L77.876,84.311L77.876,107.71C77.874,107.713 77.871,107.716 77.868,107.719L76.441,106.524L76.441,85.119L74.841,83.915L74.841,106.15C74.253,106.367 73.732,106.613 73.224,106.857C73.114,106.91 73.003,106.962 72.894,107.015C71.689,107.585 70.45,108.086 68.119,108.086C65.576,108.086 64.332,107.489 63.015,106.857C61.624,106.189 60.183,105.501 57.395,105.473L57.233,103.369L57.048,100.949L64.247,104.516L63.752,102.202L60.4,86.552L63.074,87.096L62.1,82.591C62.124,82.603 62.149,82.615 62.175,82.627ZM46.376,82.627C46.402,82.615 46.426,82.603 46.451,82.591L45.478,87.087L45.477,87.096L48.151,86.552L44.305,104.515L51.47,100.965L51.289,103.378L51.132,105.474C48.359,105.506 46.922,106.191 45.536,106.857C44.219,107.489 42.975,108.086 40.431,108.086C38.101,108.086 36.861,107.585 35.657,107.015C35.547,106.962 35.437,106.91 35.327,106.857C34.818,106.613 34.297,106.367 33.709,106.15L33.709,83.915L33.641,83.966L32.109,85.119L32.109,106.524L30.682,107.719C30.679,107.716 30.677,107.714 30.674,107.711L30.674,84.311L33.511,82.177C33.555,82.195 33.598,82.215 33.641,82.234C33.832,82.318 34.021,82.406 34.212,82.496C34.303,82.54 34.394,82.583 34.486,82.627C34.92,82.836 35.373,83.053 35.881,83.253C35.896,83.259 35.912,83.264 35.926,83.27C37.034,83.701 38.408,84.048 40.431,84.048C43.417,84.048 44.989,83.293 46.376,82.627ZM73.323,108.58C73.524,108.487 73.721,108.393 73.916,108.299C74.376,108.078 74.829,107.864 75.327,107.677L76.599,108.742C76.247,108.847 75.922,108.974 75.591,109.123C75.559,109.137 75.525,109.153 75.493,109.167C75.303,109.254 75.11,109.346 74.904,109.444C74.817,109.486 74.729,109.529 74.64,109.571C73.127,110.292 71.356,111.056 68.119,111.056C64.692,111.056 62.907,110.2 61.332,109.444C60.203,108.902 59.364,108.5 57.623,108.447L57.544,107.417L57.518,107.075C59.859,107.12 61.059,107.693 62.323,108.299C63.743,108.981 65.212,109.686 68.119,109.686C70.626,109.686 72.063,109.162 73.323,108.58ZM50.986,107.418L50.909,108.448C49.181,108.503 48.343,108.904 47.218,109.444C45.643,110.2 43.858,111.056 40.431,111.056C37.194,111.056 35.423,110.292 33.91,109.571C33.821,109.529 33.733,109.486 33.645,109.444C33.405,109.329 33.181,109.222 32.959,109.123C32.926,109.107 32.892,109.093 32.858,109.078C32.562,108.949 32.268,108.836 31.951,108.742L32.905,107.944L32.921,107.93L32.959,107.898L33.224,107.677C33.721,107.864 34.174,108.078 34.634,108.299C34.83,108.393 35.027,108.487 35.228,108.58C36.487,109.162 37.924,109.686 40.431,109.686C43.339,109.686 44.808,108.981 46.228,108.299C47.488,107.695 48.684,107.124 51.011,107.075L50.986,107.418ZM55.656,102.816L56.18,118.825L52.373,118.825L52.929,102.804L53.02,100.197L54.275,99.575L55.571,100.217L55.656,102.816ZM60.101,84.159L57.521,83.634L61.066,100.572L61.067,100.577L61.066,100.576L61.067,100.582L54.275,97.843L47.483,100.582L47.484,100.576L47.484,100.577L51.029,83.633L48.451,84.158L51.823,68.043L49.872,68.44L54.064,46.019L54.486,46.019L58.678,68.44L56.728,68.043L60.101,84.159ZM69.68,54.865L69.329,55.121L67.217,53.587L65.106,55.121L64.755,54.865L65.561,52.384L63.45,50.85L63.584,50.436L66.194,50.436L67,47.955L67.435,47.955L68.241,50.436L70.851,50.436L70.985,50.85L68.874,52.384L69.68,54.865ZM81.484,50.553L81.133,50.809L79.021,49.275L76.911,50.809L76.559,50.553L77.365,48.072L75.254,46.538L75.389,46.124L77.998,46.124L78.804,43.643L79.239,43.643L80.045,46.124L82.655,46.124L82.789,46.538L80.678,48.072L81.484,50.553ZM87.058,50.85L87.193,50.436L89.802,50.436L90.608,47.955L91.043,47.955L91.85,50.436L94.459,50.436L94.593,50.85L92.482,52.384L93.289,54.865L92.937,55.121L90.826,53.587L88.715,55.121L88.363,54.865L89.169,52.384L87.058,50.85ZM100.476,49.796C99.177,42.273 96.089,33.306 88.752,33.306C83.545,33.306 81.127,36.43 80.285,37.882L53.49,37.882L35.186,61.752C35.417,61.956 35.638,62.172 35.845,62.4C36.217,62.799 36.54,63.241 36.825,63.707L49.953,57.77L48.873,62.525L37.813,66.037C38.032,66.853 38.139,67.704 38.126,68.562C37.732,68.48 37.38,68.377 37.049,68.261C36.676,68.129 36.329,67.979 35.983,67.818C35.815,67.74 35.646,67.659 35.475,67.577C35.149,67.42 34.813,67.26 34.451,67.104C33.694,66.78 32.821,66.483 31.69,66.311C31.535,66.287 31.374,66.266 31.209,66.247C30.955,66.218 30.687,66.196 30.407,66.181C30.164,66.168 29.911,66.16 29.646,66.158C29.607,66.158 29.57,66.156 29.53,66.156C29.491,66.156 29.455,66.158 29.417,66.158C29.152,66.16 28.899,66.168 28.657,66.181C28.395,66.195 28.144,66.215 27.905,66.241C27.721,66.261 27.544,66.284 27.372,66.31C26.285,66.476 25.436,66.756 24.699,67.066C24.302,67.233 23.937,67.408 23.585,67.577C23.406,67.663 23.23,67.747 23.054,67.829C22.718,67.985 22.379,68.131 22.015,68.259C21.685,68.376 21.333,68.478 20.941,68.561C20.927,67.666 21.046,66.78 21.284,65.933L7.084,61.22C7.085,62.882 7.158,64.53 7.29,66.163L7.284,66.163C7.297,66.329 7.319,66.492 7.333,66.657C7.364,66.998 7.388,67.341 7.424,67.681L7.436,67.679C7.463,67.934 7.482,68.191 7.513,68.444C7.584,68.443 7.654,68.441 7.728,68.441C7.92,68.441 8.101,68.446 8.278,68.452C8.318,68.454 8.356,68.456 8.395,68.457C8.547,68.464 8.695,68.474 8.836,68.485C8.855,68.486 8.874,68.488 8.893,68.489C9.234,68.519 9.547,68.561 9.838,68.615C10.995,68.828 11.801,69.212 12.686,69.637C14.073,70.303 15.644,71.058 18.63,71.058C21.615,71.058 23.187,70.303 24.574,69.637C25.002,69.432 25.411,69.236 25.85,69.064C26.658,68.747 27.571,68.514 28.888,68.457C29.02,68.451 29.156,68.447 29.297,68.445C29.374,68.443 29.449,68.441 29.53,68.441C29.608,68.441 29.682,68.443 29.758,68.445C29.907,68.447 30.051,68.451 30.19,68.457C31.435,68.513 32.318,68.727 33.093,69.019C33.577,69.202 34.021,69.414 34.486,69.637C35.874,70.303 37.446,71.058 40.431,71.058C43.417,71.058 44.989,70.303 46.376,69.637C46.708,69.478 47.028,69.324 47.36,69.183L46.859,71.387L48.969,70.957L48.466,73.283C47.269,73.551 46.393,73.969 45.536,74.38C44.219,75.013 42.975,75.61 40.431,75.61C37.888,75.61 36.644,75.013 35.327,74.38C33.906,73.699 32.437,72.994 29.53,72.994C26.623,72.994 25.154,73.699 23.734,74.38C22.417,75.013 21.173,75.61 18.63,75.61C16.087,75.61 14.843,75.013 13.526,74.38C12.69,73.979 11.826,73.569 10.656,73.299C10.656,73.299 10.656,73.297 10.655,73.296C10.596,73.283 10.532,73.271 10.471,73.259C10.378,73.239 10.287,73.219 10.19,73.202C10.083,73.182 9.971,73.165 9.859,73.148C9.788,73.137 9.721,73.123 9.647,73.113L9.646,73.116C9.223,73.058 8.764,73.018 8.254,73.002C8.366,73.545 8.487,74.084 8.615,74.62C8.952,74.641 9.259,74.675 9.549,74.718C9.655,74.734 9.757,74.751 9.857,74.769C9.928,74.782 10,74.794 10.068,74.808C10.231,74.842 10.389,74.877 10.539,74.917C10.554,74.921 10.568,74.925 10.583,74.929C10.746,74.973 10.903,75.019 11.054,75.069C11.704,75.283 12.261,75.548 12.834,75.823C14.254,76.505 15.723,77.209 18.63,77.209C21.537,77.209 23.005,76.504 24.426,75.823C25.743,75.19 26.987,74.593 29.53,74.593C32.073,74.593 33.317,75.19 34.635,75.823C36.055,76.505 37.524,77.209 40.431,77.209C43.339,77.209 44.808,76.505 46.228,75.823C46.82,75.539 47.398,75.262 48.085,75.043L47.046,79.842C46.429,80.068 45.895,80.323 45.387,80.567C44.051,81.208 42.896,81.763 40.431,81.763C37.966,81.763 36.811,81.208 35.475,80.567C34.087,79.901 32.515,79.146 29.53,79.146C26.545,79.146 24.973,79.901 23.585,80.567C22.249,81.208 21.095,81.763 18.63,81.763C16.165,81.763 15.011,81.208 13.674,80.567C13.341,80.407 12.992,80.244 12.623,80.086C12.623,80.085 12.623,80.084 12.622,80.083C12.601,80.074 12.578,80.065 12.556,80.057C12.51,80.037 12.467,80.016 12.419,79.997L12.417,80.001C11.726,79.72 10.937,79.465 9.944,79.31C10.221,80.154 10.519,80.994 10.833,81.832L10.828,81.834C12.173,85.43 13.865,88.969 15.88,92.425C15.972,92.582 16.062,92.739 16.155,92.895C16.3,93.14 16.449,93.384 16.598,93.628C16.707,93.808 16.817,93.989 16.928,94.169C17.072,94.4 17.218,94.63 17.364,94.86C17.487,95.054 17.611,95.248 17.736,95.441C17.878,95.66 18.021,95.877 18.165,96.095C18.304,96.304 18.443,96.512 18.584,96.72C18.721,96.922 18.858,97.124 18.997,97.326C19.156,97.556 19.317,97.785 19.479,98.015C19.607,98.195 19.734,98.376 19.864,98.557C20.054,98.821 20.249,99.085 20.443,99.349C20.55,99.494 20.655,99.64 20.763,99.785C21.07,100.194 21.38,100.602 21.696,101.009C29.368,110.88 39.947,119.899 53.138,127.815L54.275,128.498L55.411,127.815C68.603,119.899 79.182,110.88 86.853,101.009C86.864,100.995 86.874,100.982 86.885,100.968C87.361,100.354 87.824,99.737 88.278,99.116C88.335,99.038 88.393,98.96 88.45,98.882C88.908,98.25 89.355,97.616 89.79,96.977C89.827,96.923 89.863,96.87 89.9,96.815C90.824,95.454 91.699,94.078 92.519,92.687C94.66,89.05 96.439,85.318 97.837,81.523L97.83,81.52C98.102,80.786 98.363,80.049 98.605,79.31C97.613,79.465 96.825,79.719 96.134,80.001L96.132,79.997C96.088,80.015 96.05,80.034 96.007,80.051C95.981,80.062 95.953,80.072 95.928,80.083C95.927,80.084 95.927,80.085 95.926,80.086C95.558,80.244 95.21,80.407 94.877,80.567C93.54,81.208 92.386,81.763 89.921,81.763C87.457,81.763 86.302,81.208 84.966,80.567C83.579,79.901 82.006,79.146 79.021,79.146C76.036,79.146 74.464,79.901 73.076,80.567C71.74,81.208 70.585,81.763 68.12,81.763C65.655,81.763 64.5,81.208 63.164,80.567C62.656,80.323 62.122,80.068 61.504,79.842L59.582,70.957L61.691,71.387L61.691,71.386L60.416,65.772L67.328,58.916L71.885,62.264L79.021,55.057L86.157,62.264L90.706,58.922L98.874,67.204L100.929,69.286C101.026,68.566 101.107,67.84 101.179,67.11L101.184,67.111C101.194,67.01 101.199,66.907 101.208,66.806C101.222,66.657 101.239,66.509 101.252,66.359L101.244,66.351C101.696,60.963 101.443,55.399 100.476,49.796Z" style="fill:rgb(35,31,32);fill-rule:nonzero;"/>
        <path d="M72.624,89.393C72.874,89.292 73.112,89.187 73.344,89.08L73.344,87.309C73.305,87.328 73.264,87.348 73.224,87.367C73.024,87.462 72.825,87.557 72.624,87.65C71.499,88.166 70.276,88.596 68.119,88.596C65.768,88.596 64.526,88.085 63.311,87.508L63.311,89.267C64.482,89.773 65.87,90.195 68.119,90.195C70.178,90.195 71.514,89.841 72.624,89.393Z" style="fill:rgb(35,31,32);fill-rule:nonzero;"/>
        <path d="M72.624,94.149C71.499,94.665 70.276,95.095 68.119,95.095C66.467,95.095 65.365,94.842 64.433,94.493L64.433,96.186C65.386,96.486 66.54,96.695 68.119,96.695C70.178,96.695 71.514,96.34 72.624,95.892C72.874,95.791 73.112,95.686 73.344,95.579L73.344,93.808C73.305,93.828 73.264,93.847 73.224,93.866C73.024,93.961 72.825,94.056 72.624,94.149Z" style="fill:rgb(35,31,32);fill-rule:nonzero;"/>
        <path d="M72.624,100.635C71.499,101.151 70.276,101.582 68.119,101.582C67.277,101.582 66.579,101.515 65.972,101.404L65.972,103.027C66.595,103.124 67.298,103.181 68.119,103.181C70.178,103.181 71.514,102.827 72.624,102.378C72.874,102.278 73.112,102.172 73.344,102.065L73.344,100.295C73.305,100.314 73.264,100.333 73.224,100.352C73.024,100.448 72.825,100.543 72.624,100.635Z" style="fill:rgb(35,31,32);fill-rule:nonzero;"/>
        <path d="M15.455,41.617L16.356,42.23L25.719,29.445L25.719,27.813L24.173,27.813L15.455,41.617Z" style="fill:rgb(35,31,32);fill-rule:nonzero;"/>
        <path d="M68.495,73.921L68.495,68.419L66.181,68.419L66.181,69.755L66.946,69.755L66.946,73.921L68.495,73.921Z" style="fill:rgb(35,31,32);fill-rule:nonzero;"/>
        <path d="M75.031,72.833C74.723,72.833 74.473,72.577 74.473,72.261C74.473,71.938 74.723,71.675 75.031,71.675C75.338,71.675 75.588,71.938 75.588,72.261C75.588,72.577 75.338,72.833 75.031,72.833ZM75.031,70.374C74.751,70.374 74.523,70.141 74.523,69.852C74.523,69.564 74.751,69.33 75.031,69.33C75.311,69.33 75.539,69.564 75.539,69.852C75.539,70.141 75.311,70.374 75.031,70.374ZM72.91,72.438C72.91,73.54 74.003,74.134 75.031,74.134C76.059,74.134 77.151,73.54 77.151,72.438C77.151,71.794 76.81,71.288 76.206,71.025C76.646,70.803 76.932,70.335 76.932,69.81C76.932,68.708 75.946,68.207 75.031,68.207C74.115,68.207 73.13,68.708 73.13,69.81C73.13,70.335 73.415,70.803 73.855,71.025C73.252,71.288 72.91,71.794 72.91,72.438Z" style="fill:rgb(35,31,32);fill-rule:nonzero;"/>
        <path d="M83.327,71.286C83.762,71.286 84.104,71.633 84.104,72.077C84.104,72.529 83.762,72.883 83.327,72.883C82.886,72.883 82.527,72.521 82.527,72.077C82.527,71.641 82.886,71.286 83.327,71.286ZM83.06,68.419L81.889,69.953C81.49,70.474 81.014,71.274 81.014,72.126C81.014,72.686 81.299,73.272 81.761,73.656C82.143,73.959 82.716,74.134 83.333,74.134C84.478,74.134 85.709,73.477 85.709,72.035C85.709,71.086 85.08,70.077 83.915,70.077C83.731,70.077 83.562,70.101 83.389,70.153L84.844,68.419L83.06,68.419Z" style="fill:rgb(35,31,32);fill-rule:nonzero;"/>
        <path d="M91.409,72.833C91.102,72.833 90.852,72.577 90.852,72.261C90.852,71.938 91.102,71.675 91.409,71.675C91.717,71.675 91.967,71.938 91.967,72.261C91.967,72.577 91.717,72.833 91.409,72.833ZM91.409,70.374C91.129,70.374 90.901,70.141 90.901,69.852C90.901,69.564 91.129,69.33 91.409,69.33C91.689,69.33 91.917,69.564 91.917,69.852C91.917,70.141 91.689,70.374 91.409,70.374ZM89.289,72.438C89.289,73.54 90.381,74.134 91.409,74.134C92.437,74.134 93.53,73.54 93.53,72.438C93.53,71.794 93.188,71.288 92.584,71.025C93.025,70.803 93.311,70.335 93.311,69.81C93.311,68.708 92.325,68.207 91.409,68.207C90.494,68.207 89.509,68.708 89.509,69.81C89.509,70.335 89.793,70.803 90.234,71.025C89.631,71.288 89.289,71.794 89.289,72.438Z" style="fill:rgb(35,31,32);fill-rule:nonzero;"/>
        <path d="M147.441,52.103C147.441,39.707 144.694,34.951 138.664,34.951C132.567,34.951 129.82,39.707 129.82,52.103C129.82,64.431 132.567,69.255 138.664,69.255C144.694,69.255 147.441,64.431 147.441,52.103ZM119.769,52.103C119.769,39.507 126.604,31.734 138.664,31.734C150.657,31.734 157.492,39.507 157.492,52.103C157.492,64.699 150.657,72.471 138.664,72.471C126.604,72.471 119.769,64.699 119.769,52.103Z" style="fill:rgb(241,93,34);fill-rule:nonzero;"/>
        <path d="M176.385,69.724L175.514,71.801L159.165,71.801L159.165,69.925L161.913,68.719L161.913,50.428L159.099,46.006L159.099,45.269L169.216,41.918L170.622,41.918L170.422,48.753L170.689,48.753C172.03,45.336 174.643,41.918 179.065,41.918C182.616,41.918 184.76,43.996 184.76,47.279C184.76,50.294 182.683,52.17 180.137,52.17C177.256,52.17 175.514,50.227 175.514,47.48C173.839,48.217 172.23,49.758 170.689,51.768L170.689,68.451L176.385,69.724Z" style="fill:rgb(241,93,34);fill-rule:nonzero;"/>
        <path d="M192.799,53.443L202.246,53.443C202.38,52.907 202.447,52.036 202.447,50.964C202.447,47.815 201.576,45.001 198.427,45.001C195.479,45.001 193.335,47.748 192.799,53.443ZM201.174,66.843C204.189,66.843 205.932,66.106 208.411,64.23L209.684,65.704C207.539,70.528 203.452,72.471 197.757,72.471C190.119,72.471 184.089,67.58 184.089,57.597C184.089,47.48 190.923,41.918 199.03,41.918C205.597,41.918 210.153,45.738 210.153,52.773C210.153,53.845 210.085,55.319 209.817,56.592L192.665,56.592C192.799,62.689 195.479,66.843 201.174,66.843Z" style="fill:rgb(241,93,34);fill-rule:nonzero;"/>
        <path d="M225.092,44.934C221.675,44.934 221.072,47.547 221.072,51.902C221.072,56.19 221.675,58.803 225.092,58.803C228.576,58.803 229.179,56.19 229.179,51.902C229.179,47.547 228.576,44.934 225.092,44.934ZM218.191,78.501C218.191,82.052 220.804,83.727 225.427,83.727C230.72,83.727 234.74,82.253 234.74,78.032C234.74,75.486 233.4,73.945 229.447,73.945L221.005,73.945C219.263,74.883 218.191,76.357 218.191,78.501ZM231.591,65.972C237.956,65.972 241.976,69.054 241.976,75.486C241.976,83.661 233.87,86.676 225.025,86.676C216.851,86.676 210.821,84.799 210.821,79.641C210.821,75.821 213.836,74.079 218.392,73.409L218.392,73.208C214.573,72.739 212.429,70.528 212.429,67.044C212.429,63.56 215.042,61.483 218.727,60.746C214.908,59.406 212.496,56.726 212.496,52.371C212.496,46.475 216.918,41.918 225.36,41.918C228.844,41.918 232.932,42.589 236.08,44.13C235.812,43.727 235.679,43.192 235.679,42.521C235.679,40.377 237.287,39.038 239.364,39.038C241.508,39.038 243.049,40.512 243.049,42.856C243.049,45.403 241.373,46.81 238.961,46.81C237.22,46.81 235.611,46.14 233.668,45.403L233.668,46.073C236.014,47.144 237.622,49.423 237.622,52.438C237.622,58.87 231.189,61.751 225.293,61.751C223.819,61.751 222.479,61.617 221.206,61.282C219.799,61.751 218.727,62.488 218.727,63.962C218.727,65.302 219.531,65.972 221.139,65.972L231.591,65.972Z" style="fill:rgb(241,93,34);fill-rule:nonzero;"/>
        <path d="M255.443,69.389C259.932,69.389 261.138,64.967 261.138,57.195C261.138,49.423 259.932,45.001 255.443,45.001C250.954,45.001 249.748,49.423 249.748,57.195C249.748,64.967 250.954,69.389 255.443,69.389ZM255.443,72.471C246.398,72.471 240.434,67.312 240.434,57.195C240.434,47.078 246.398,41.918 255.443,41.918C264.488,41.918 270.451,47.078 270.451,57.195C270.451,67.312 264.488,72.471 255.443,72.471Z" style="fill:rgb(241,93,34);fill-rule:nonzero;"/>
        <path d="M305.626,69.858L304.755,71.801L290.081,71.801L290.081,69.925L292.829,68.652L292.829,54.046C292.829,49.691 290.55,48.217 288.071,48.217C285.793,48.217 283.984,49.356 282.778,50.495L282.778,68.585L286.731,69.858L285.86,71.801L271.254,71.801L271.254,69.925L274.001,68.719L274.001,50.361L271.187,45.939L271.187,45.202L281.304,41.918L282.711,41.918L282.51,47.748L282.778,47.748C285.19,43.929 288.54,41.918 293.029,41.918C297.92,41.918 301.673,45.336 301.673,52.17L301.673,68.585L305.626,69.858Z" style="fill:rgb(241,93,34);fill-rule:nonzero;"/>
        <path d="M332.624,63.828C332.624,60.21 330.748,58.468 326.327,56.726L321.502,54.716C316.544,52.706 313.663,49.356 313.663,43.192C313.663,35.219 319.828,31.734 326.327,31.734C329.877,31.734 332.759,32.539 334.836,33.208L338.119,31.734L338.722,42.856L336.913,43.259L333.697,39.038C331.686,36.224 329.61,34.749 326.125,34.749C322.977,34.749 320.832,36.76 320.832,39.842C320.832,42.924 322.239,44.733 326.26,46.341L331.285,48.351C337.583,50.83 340.33,54.448 340.33,60.612C340.33,68.652 334.233,72.471 327.063,72.471C322.239,72.471 319.693,71.265 317.817,70.327L314.199,72.471L313.06,59.741L315.137,59.339L318.42,64.096C320.631,67.513 323.11,69.322 326.93,69.322C330.48,69.322 332.624,67.312 332.624,63.828Z" style="fill:rgb(241,93,34);fill-rule:nonzero;"/>
        <path d="M340.864,43.862L351.584,34.683L353.594,34.683L353.594,42.589L362.438,42.589L361.969,46.073L353.661,46.073L353.661,61.885C353.661,65.771 355.135,67.245 357.815,67.245C359.557,67.245 360.897,66.843 362.773,65.838L363.443,67.446C361.366,70.595 358.016,72.471 353.728,72.471C348.502,72.471 344.884,69.858 344.884,63.024L344.884,46.073L340.864,46.073L340.864,43.862Z" style="fill:rgb(241,93,34);fill-rule:nonzero;"/>
        <path d="M378.517,58.736C374.564,58.736 372.286,59.741 372.286,63.292C372.286,65.771 373.76,67.446 376.105,67.446C377.579,67.446 378.785,67.111 379.991,66.039L379.991,58.736L378.517,58.736ZM388.768,65.369C388.768,68.384 389.84,69.054 392.989,68.719L393.19,70.059C391.516,71.667 389.304,72.471 386.155,72.471C383.274,72.471 380.862,71.265 380.326,68.183L380.125,68.116C378.718,71.131 375.636,72.471 372.018,72.471C367.529,72.471 363.844,69.992 363.844,64.431C363.844,58.535 368.534,55.654 375.971,55.654C377.378,55.654 378.919,55.922 379.991,56.19L379.991,53.644C379.991,49.758 377.512,47.815 373.559,47.815C370.745,47.815 368.4,48.351 365.586,49.825L364.782,47.882C367.663,43.996 372.286,41.918 377.78,41.918C383.341,41.918 388.768,44.398 388.768,52.572L388.768,65.369Z" style="fill:rgb(241,93,34);fill-rule:nonzero;"/>
        <path d="M389.973,43.862L400.693,34.683L402.703,34.683L402.703,42.589L411.547,42.589L411.078,46.073L402.77,46.073L402.77,61.885C402.77,65.771 404.244,67.245 406.924,67.245C408.666,67.245 410.006,66.843 411.882,65.838L412.552,67.446C410.475,70.595 407.125,72.471 402.837,72.471C397.611,72.471 393.993,69.858 393.993,63.024L393.993,46.073L389.973,46.073L389.973,43.862Z" style="fill:rgb(241,93,34);fill-rule:nonzero;"/>
        <path d="M420.658,53.443L430.105,53.443C430.239,52.907 430.306,52.036 430.306,50.964C430.306,47.815 429.435,45.001 426.286,45.001C423.338,45.001 421.194,47.748 420.658,53.443ZM429.033,66.843C432.048,66.843 433.79,66.106 436.269,64.23L437.542,65.704C435.398,70.528 431.311,72.471 425.616,72.471C417.978,72.471 411.948,67.58 411.948,57.597C411.948,47.48 418.782,41.918 426.889,41.918C433.456,41.918 438.012,45.738 438.012,52.773C438.012,53.845 437.944,55.319 437.676,56.592L420.524,56.592C420.658,62.689 423.338,66.843 429.033,66.843Z" style="fill:rgb(241,93,34);fill-rule:nonzero;"/>
        <path d="M153.873,111.457C153.873,121.239 147.374,126.197 138.865,126.197C129.82,126.197 123.589,122.579 123.589,112.194L123.589,89.816L118.631,88.275L119.1,86.131L134.242,86.131L134.778,88.275L129.753,89.816L129.753,111.256C129.753,118.894 132.969,122.445 139.401,122.445C145.632,122.445 149.92,118.894 149.92,110.787L149.92,89.816L144.895,88.275L145.432,86.131L158.362,86.131L158.898,88.275L153.873,89.816L153.873,111.457Z" style="fill:rgb(35,31,32);fill-rule:nonzero;"/>
        <path d="M188.377,123.584L187.506,125.527L174.642,125.527L174.642,123.651L177.791,122.512L177.791,105.963C177.791,101.675 175.111,100.804 172.833,100.804C170.153,100.804 167.54,102.144 165.999,103.484L165.999,122.311L170.689,123.584L169.818,125.527L156.954,125.527L156.954,123.651L160.103,122.579L160.103,103.082L156.887,99.464L156.887,98.727L164.927,95.645L165.932,95.645L165.731,101.34L165.999,101.34C168.679,96.918 172.766,95.645 175.781,95.645C179.667,95.645 183.687,97.99 183.687,104.824L183.687,122.311L188.377,123.584Z" style="fill:rgb(35,31,32);fill-rule:nonzero;"/>
        <path d="M195.143,82.714C197.488,82.714 199.297,84.523 199.297,86.868C199.297,89.213 197.488,91.022 195.143,91.022C192.798,91.022 190.989,89.213 190.989,86.868C190.989,84.523 192.798,82.714 195.143,82.714ZM202.848,123.584L201.977,125.527L189.113,125.527L189.113,123.651L192.262,122.579L192.262,103.082L189.046,99.464L189.046,98.727L197.086,95.645L198.158,95.645L198.158,122.311L202.848,123.584Z" style="fill:rgb(35,31,32);fill-rule:nonzero;"/>
        <path d="M223.148,99.732L218.726,98.258L219.128,96.315L229.982,96.315L230.384,98.258L227.302,99.531L217.118,125.527L213.768,125.527L203.115,99.866L200.233,98.057L200.703,96.315L213.031,96.315L213.5,98.325L209.212,99.397L213.902,111.189C215.51,115.209 216.314,119.296 216.314,119.296L216.582,119.296C216.582,119.296 217.453,115.276 219.061,111.122L223.148,99.732Z" style="fill:rgb(35,31,32);fill-rule:nonzero;"/>
        <path d="M234.203,106.767L246.464,106.767C246.531,106.298 246.531,105.427 246.531,104.958C246.531,100.737 244.856,98.526 241.372,98.526C238.156,98.526 235.141,101.072 234.203,106.767ZM243.047,121.842C246.33,121.842 248.675,120.971 251.355,119.095L252.226,120.636C249.814,124.321 246.397,126.197 241.238,126.197C234.068,126.197 228.373,121.239 228.373,111.189C228.373,101.206 234.671,95.645 242.176,95.645C248.206,95.645 252.561,99.397 252.561,106.164C252.561,107.236 252.494,108.375 252.226,109.648L234.001,109.648C234.001,117.353 237.418,121.842 243.047,121.842Z" style="fill:rgb(35,31,32);fill-rule:nonzero;"/>
        <path d="M268.707,123.517L267.836,125.527L253.632,125.527L253.632,123.651L256.781,122.579L256.781,103.082L253.565,99.464L253.565,98.727L261.605,95.645L262.61,95.645L262.409,102.546L262.677,102.546C264.352,98.794 267.367,95.578 271.186,95.578C274.335,95.578 276.144,97.32 276.144,99.933C276.144,102.613 274.335,104.02 272.258,104.02C269.846,104.02 268.439,102.278 268.439,99.933C266.161,100.804 264.352,102.814 262.677,105.293L262.677,122.311L268.707,123.517Z" style="fill:rgb(35,31,32);fill-rule:nonzero;"/>
        <path d="M277.886,116.08C280.7,122.11 283.313,123.651 286.931,123.651C289.946,123.651 291.956,122.579 291.956,119.43C291.956,116.884 290.482,115.477 287.132,114.338L283.313,112.998C279.293,111.591 276.68,109.112 276.68,104.154C276.68,98.392 280.834,95.645 286.462,95.645C287.802,95.645 290.482,96.114 291.822,96.851L295.038,95.712L295.574,104.288L294.167,104.757C291.286,99.799 288.941,98.392 286.06,98.392C283.246,98.392 281.504,100 281.504,102.412C281.504,104.824 282.71,106.365 285.993,107.504L289.812,108.777C294.234,110.318 296.981,112.663 296.981,117.755C296.981,123.718 292.492,126.197 286.529,126.197C283.782,126.197 281.504,125.394 279.896,124.656L276.881,126.197L276.278,116.549L277.886,116.08Z" style="fill:rgb(35,31,32);fill-rule:nonzero;"/>
        <path d="M304.819,82.714C307.164,82.714 308.973,84.523 308.973,86.868C308.973,89.213 307.164,91.022 304.819,91.022C302.474,91.022 300.664,89.213 300.664,86.868C300.664,84.523 302.474,82.714 304.819,82.714ZM312.524,123.584L311.653,125.527L298.789,125.527L298.789,123.651L301.937,122.579L301.937,103.082L298.722,99.464L298.722,98.727L306.762,95.645L307.834,95.645L307.834,122.311L312.524,123.584Z" style="fill:rgb(35,31,32);fill-rule:nonzero;"/>
        <path d="M311.048,97.588L319.424,88.342L320.764,88.342L320.764,96.315L330.546,96.315L330.077,99.464L320.764,99.464L320.764,116.884C320.764,120.636 322.372,122.177 325.185,122.177C327.062,122.177 328.603,121.775 330.613,120.77L331.283,122.445C329.072,124.857 326.526,126.197 322.171,126.197C317.682,126.197 314.868,123.853 314.868,117.889L314.868,99.464L311.048,99.464L311.048,97.588Z" style="fill:rgb(35,31,32);fill-rule:nonzero;"/>
        <path d="M330.611,99.866L327.73,98.057L328.199,96.315L340.595,96.315L341.063,98.325L336.775,99.397L341.533,111.993C343.409,117.018 343.744,120.502 343.744,120.502L344.012,120.502C344.012,120.502 345.15,116.214 346.558,111.926L350.511,99.732L346.088,98.258L346.491,96.315L357.211,96.315L357.613,98.258L354.531,99.531L345.218,124.924C340.997,136.381 337.445,140 331.951,140C328.467,140 326.591,137.99 326.591,135.443C326.591,133.032 328.065,131.558 330.41,131.558C332.487,131.558 333.827,133.032 333.827,134.975C333.827,135.979 333.492,136.784 333.157,137.252C335.837,137.252 339.321,132.361 341.197,126.532L330.611,99.866Z" style="fill:rgb(35,31,32);fill-rule:nonzero;"/>
    </g>
</svg>
