<?xml version="1.0" encoding="utf-8"?>
<!-- Generator: Adobe Illustrator 25.0.0, SVG Export Plug-In . SVG Version: 6.00 Build 0)  -->
<svg version="1.1" id="Design_Layer" xmlns="http://www.w3.org/2000/svg" xmlns:xlink="http://www.w3.org/1999/xlink" x="0px"
	 y="0px" viewBox="0 0 51.92 51.92" style="enable-background:new 0 0 51.92 51.92;" xml:space="preserve">
<g>
	<path d="M44.6,15.67c0.28,0,0.5-0.22,0.5-0.5v-7.1c0-1.22-0.99-2.22-2.22-2.22h-9.54c-1.55-1.36-4-2.99-6.66-2.99
		c-0.03,0-0.06,0-0.09,0c-2.66,0.04-4.96,1.64-6.44,2.99h-9.93c-1.22,0-2.22,0.99-2.22,2.22v37.31c0,1.22,0.99,2.21,2.22,2.21h32.65
		c1.22,0,2.22-0.99,2.22-2.21V18.17c0-0.28-0.22-0.5-0.5-0.5s-0.5,0.22-0.5,0.5v27.21c0,0.67-0.55,1.21-1.22,1.21H10.24
		c-0.67,0-1.22-0.54-1.22-1.21V8.08c0-0.67,0.55-1.22,1.22-1.22h8.92c-0.28,0.3-0.48,0.55-0.59,0.69c-0.31,0.39-0.38,1.57-0.36,2.75
		h-3.8c-1.22,0-2.22,0.99-2.22,2.21v21.96c0,0.28,0.22,0.5,0.5,0.5s0.5-0.22,0.5-0.5V12.51c0-0.67,0.55-1.21,1.22-1.21h3.84
		c0.02,0.31,0.03,0.61,0.05,0.87c0.02,0.26,0.24,0.46,0.5,0.46h2.29c0.28,0,0.5-0.22,0.5-0.5s-0.22-0.5-0.5-0.5h-1.82
		c-0.09-1.51-0.07-3.16,0.09-3.46c0.18-0.23,0.62-0.75,1.24-1.35c0.13-0.05,0.23-0.14,0.29-0.27c1.35-1.23,3.41-2.65,5.73-2.69
		c2.46-0.05,4.76,1.54,6.16,2.79c0.04,0.05,0.08,0.08,0.13,0.12c0.71,0.65,1.17,1.19,1.25,1.33c0.14,0.32,0.12,1.99,0.02,3.52h-10.6
		c-0.28,0-0.5,0.22-0.5,0.5s0.22,0.5,0.5,0.5h11.06c0.26,0,0.48-0.2,0.5-0.46c0.02-0.26,0.04-0.56,0.06-0.87h3.52
		c0.67,0,1.22,0.54,1.22,1.22l0.02,23.85l-5.27,0.03c-0.27,0-0.5,0.22-0.5,0.5l-0.03,5.28L14.4,42.17c-0.67,0-1.22-0.54-1.22-1.21
		v-3.72c0-0.28-0.22-0.5-0.5-0.5s-0.5,0.22-0.5,0.5v3.72c0,1.22,0.99,2.21,2.22,2.21l20.21-0.01c0.01,0,0.03-0.01,0.04-0.01
		c0,0,0,0,0,0c0.13,0,0.26-0.05,0.35-0.15l5.79-5.79c0.1-0.1,0.13-0.24,0.13-0.37h0.03l-0.02-24.33c0-1.22-0.99-2.21-2.22-2.21
		h-3.48c0.03-1.16,0-2.31-0.23-2.69c-0.06-0.1-0.29-0.38-0.63-0.74h8.5c0.67,0,1.22,0.55,1.22,1.22v7.1
		C44.1,15.45,44.32,15.67,44.6,15.67z M35.16,41.43l0.02-4.05l4.05-0.02L35.16,41.43z"/>
	<path d="M16.04,17.11v-2.66c0-0.28-0.22-0.5-0.5-0.5s-0.5,0.22-0.5,0.5v2.66c0,0.28,0.22,0.5,0.5,0.5S16.04,17.39,16.04,17.11z"/>
	<path d="M19.73,17.11v-2.66c0-0.28-0.22-0.5-0.5-0.5s-0.5,0.22-0.5,0.5v2.66c0,0.28,0.22,0.5,0.5,0.5S19.73,17.39,19.73,17.11z"/>
	<path d="M23.41,17.11v-2.66c0-0.28-0.22-0.5-0.5-0.5s-0.5,0.22-0.5,0.5v2.66c0,0.28,0.22,0.5,0.5,0.5S23.41,17.39,23.41,17.11z"/>
	<path d="M27.1,17.11v-2.66c0-0.28-0.22-0.5-0.5-0.5s-0.5,0.22-0.5,0.5v2.66c0,0.28,0.22,0.5,0.5,0.5S27.1,17.39,27.1,17.11z"/>
	<path d="M30.78,17.11v-2.66c0-0.28-0.22-0.5-0.5-0.5s-0.5,0.22-0.5,0.5v2.66c0,0.28,0.22,0.5,0.5,0.5S30.78,17.39,30.78,17.11z"/>
	<path d="M34.47,17.11v-2.66c0-0.28-0.22-0.5-0.5-0.5s-0.5,0.22-0.5,0.5v2.66c0,0.28,0.22,0.5,0.5,0.5S34.47,17.39,34.47,17.11z"/>
	<path d="M38.15,17.11v-2.66c0-0.28-0.22-0.5-0.5-0.5s-0.5,0.22-0.5,0.5v2.66c0,0.28,0.22,0.5,0.5,0.5S38.15,17.39,38.15,17.11z"/>
	<path d="M17.68,26.68c-0.2,0.2-0.2,0.51,0,0.71l6.21,6.21c0.1,0.1,0.23,0.15,0.35,0.15c0.13,0,0.25-0.05,0.35-0.14L35.9,22.4
		c0.2-0.19,0.2-0.51,0-0.71s-0.51-0.2-0.71,0L24.24,32.54l-5.86-5.86C18.19,26.49,17.88,26.49,17.68,26.68z"/>
	<path d="M28.36,7.28c0-0.9-0.73-1.64-1.64-1.64c-0.9,0-1.64,0.73-1.64,1.64s0.73,1.64,1.64,1.64C27.63,8.91,28.36,8.18,28.36,7.28z
		 M26.09,7.28c0-0.35,0.29-0.64,0.64-0.64s0.64,0.29,0.64,0.64s-0.29,0.64-0.64,0.64S26.09,7.63,26.09,7.28z"/>
</g>
</svg>
